{"title":"Star Crossed S01E06 HDTV x264 AAC [GWC].mp4","uid":9823423,"size":124935601,"categoryP":"video","categoryS":"tv_shows","magnet":"?xt=urn:btih:b3a3d35dd9a980996e3e546619fcc9c230f89900&amp;dn=Star+Crossed+S01E06+HDTV+x264+AAC+%5BGWC%5D.mp4&amp;tr=udp%3A%2F%2Ftracker.openbittorrent.com%3A80&amp;tr=udp%3A%2F%2Fopen.demonii.com%3A1337&amp;tr=udp%3A%2F%2Ftracker.coppersurfer.tk%3A6969&amp;tr=udp%3A%2F%2Fexodus.desync.com%3A6969","seeders":1,"leechers":0,"uploader":"canc232","files":1,"time":1395728062,"description":"Star Crossed S01E06 HDTV x264 AAC [GWC] \n\n\nSTORYLINE :\nAbout an epic romance between a human girl and an alien boy when he and eight others of his kind are integrated into a suburban high school 10 years after they landed on Earth and were consigned to an internment camp.\n\n\nSCREENS ; &lt;a href=&quot;\nhttp://i.imgur.com/hFVcL2g.jpg&quot; rel=&quot;nofollow&quot; target=&quot;_NEW&quot;&gt;\nhttp://i.imgur.com/hFVcL2g.jpg&lt;/a&gt; &lt;a href=&quot;\nhttp://i.imgur.com/aEYXAhn.jpg&quot; rel=&quot;nofollow&quot; target=&quot;_NEW&quot;&gt;\nhttp://i.imgur.com/aEYXAhn.jpg&lt;/a&gt; &lt;a href=&quot;\nhttp://i.imgur.com/emQat58.jpg&quot; rel=&quot;nofollow&quot; target=&quot;_NEW&quot;&gt;\nhttp://i.imgur.com/emQat58.jpg&lt;/a&gt;\n\n\nMEDIA INFO :\nGeneral \nFormat : MPEG-4 \nFormat profile : Base Media \nCodec ID : isom \nFile size : 119 MiB \nDuration : 39mn 3s \nOverall bit rate mode : Variable \nOverall bit rate : 427 Kbps \n\nVideo \nFormat : AVC \nFormat profile : &lt;a class=&quot;__cf_email__&quot; href=&quot;/cdn-cgi/l/email-protection&quot; data-cfemail=&quot;9ed6f7f9f6ded2adb0ae&quot;&gt;[email&amp;#160;protected]&lt;/a&gt;&lt;script cf-hash='f9e31' type=&quot;text/javascript&quot;&gt;\n/* &lt;![CDATA[ */!function(){try{var t=&quot;currentScript&quot;in document?document.currentScript:function(){for(var t=document.getElementsByTagName(&quot;script&quot;),e=t.length;e--;)if(t[e].getAttribute(&quot;cf-hash&quot;))return t[e]}();if(t&amp;&amp;t.previousSibling){var e,r,n,i,c=t.previousSibling,a=c.getAttribute(&quot;data-cfemail&quot;);if(a){for(e=&quot;&quot;,r=parseInt(a.substr(0,2),16),n=2;a.length-n;n+=2)i=parseInt(a.substr(n,2),16)^r,e+=String.fromCharCode(i);e=document.createTextNode(e),c.parentNode.replaceChild(e,c)}}}catch(u){}}();/* ]]&gt; */&lt;/script&gt; \nFormat settings, CABAC : Yes \nFormat settings, ReFrames : 4 frames \nDuration : 39mn 3s \nBit rate : 363 Kbps \nMaximum bit rate : 1 298 Kbps \nWidth : 720 pixels \nHeight : 404 pixels \nDisplay aspect ratio : 16:9 \nFrame rate mode : Constant \nFrame rate : 23.976 fps \nStream size : 101 MiB (85%) \nTitle : Star Crossed S01E06 HDTV x264 AAC [GWC] \nWriting library : x264 core \n\nAudio \nFormat : AAC \nFormat profile : HE-AAC / LC \nDuration : 39mn 3s \nBit rate mode : Variable \nChannel(s) : 2 channels \nSampling rate : 48.0 KHz / 24.0 KHz \nStream size : 16.8 MiB (14%) \nLanguage : English","torrent":{"xt":"urn:btih:b3a3d35dd9a980996e3e546619fcc9c230f89900","amp;dn":"Star+Crossed+S01E06+HDTV+x264+AAC+%5BGWC%5D.mp4","amp;tr":["udp%3A%2F%2Ftracker.openbittorrent.com%3A80","udp%3A%2F%2Fopen.demonii.com%3A1337","udp%3A%2F%2Ftracker.coppersurfer.tk%3A6969","udp%3A%2F%2Fexodus.desync.com%3A6969"],"infoHash":"b3a3d35dd9a980996e3e546619fcc9c230f89900","infoHashBuffer":{"type":"Buffer","data":[179,163,211,93,217,169,128,153,110,62,84,102,25,252,201,194,48,248,153,0]},"announce":[],"urlList":[]}}